# Blender v2.79 (sub 7) OBJ File: 'room.blend'
# www.blender.org
o Plane.002
v -3.000000 3.000000 -3.000000
v -3.000000 0.000000 -3.000000
v 3.000000 -0.000000 3.000000
v 3.000000 3.000000 3.000000
v -3.000000 3.000000 0.000000
v -3.000000 -0.000000 0.000000
v -3.000000 0.000000 -1.500000
v -3.000000 -0.000000 3.000000
v 3.000000 0.000000 -3.000000
v -3.000000 3.000000 -1.500000
v 3.000000 2.000000 -3.000000
v -3.000000 2.000000 3.000000
v -3.000000 2.000000 -1.500000
v -3.000000 3.000000 3.000000
v -3.000000 2.000000 0.000000
v 3.000000 3.000000 -3.000000
v 3.000000 2.000000 3.000000
v -3.000000 2.000000 -3.000000
vt -0.003906 1.000000
vt 0.250000 0.875000
vt 0.250000 1.000000
vt 0.468750 1.000000
vt 0.593750 0.875000
vt 0.593750 1.000000
vt 0.746094 0.503906
vt 0.750000 0.875000
vt 0.750000 1.000000
vt 1.000000 0.503906
vt 1.000000 0.875000
vt 0.250000 0.503906
vt 0.468750 0.875000
vt 1.000000 1.000000
vt -0.003906 0.875000
vt 0.593750 0.503906
vt 0.468750 0.503906
vt -0.003906 0.503906
vn 0.0000 0.0000 -1.0000
vn 1.0000 0.0000 0.0000
vn 0.0000 0.0000 1.0000
s off
f 4/1/1 12/2/1 14/3/1
f 5/4/2 13/5/2 10/6/2
f 13/5/2 2/7/2 18/8/2
f 10/6/2 18/8/2 1/9/2
f 18/8/3 9/10/3 11/11/3
f 8/12/2 15/13/2 12/2/2
f 1/9/3 11/11/3 16/14/3
f 12/2/2 5/4/2 14/3/2
f 17/15/1 8/12/1 12/2/1
f 4/1/1 17/15/1 12/2/1
f 5/4/2 15/13/2 13/5/2
f 13/5/2 7/16/2 2/7/2
f 10/6/2 13/5/2 18/8/2
f 18/8/3 2/7/3 9/10/3
f 8/12/2 6/17/2 15/13/2
f 1/9/3 18/8/3 11/11/3
f 12/2/2 15/13/2 5/4/2
f 17/15/1 3/18/1 8/12/1
